<svg xmlns="http://www.w3.org/2000/svg" xmlns:xlink="http://www.w3.org/1999/xlink" viewBox="0 0 55 54.031">
  <path fill="#f50049" d="M318.066,600.144h-7.63a7.455,7.455,0,0,0,2.008-5.092s0-.3,0-0.385a6.844,6.844,0,0,0-3.56-5.779,7.1,7.1,0,0,0-6.979,0l-3.469,1.944a12.053,12.053,0,0,0-4.932,5.209,12.053,12.053,0,0,0-4.932-5.209l-3.469-1.944a7.106,7.106,0,0,0-6.979,0,6.847,6.847,0,0,0-3.56,5.78c0,0.085,0,.385,0,0.385a7.455,7.455,0,0,0,2.008,5.092h-7.63A2.927,2.927,0,0,0,266,603.057v6.913a2.927,2.927,0,0,0,2.934,2.913h1.344v26.2A2.926,2.926,0,0,0,273.212,642h40.576a2.926,2.926,0,0,0,2.934-2.912v-26.2h1.344A2.927,2.927,0,0,0,321,609.97v-6.913A2.927,2.927,0,0,0,318.066,600.144Zm-18.433-7.2L303.1,591a4.665,4.665,0,0,1,4.58,0A4.44,4.44,0,0,1,310,594.749c0,0.058,0,.3,0,0.3a5.117,5.117,0,0,1-5.13,5.092H294.792A9.6,9.6,0,0,1,299.633,592.945Zm-22.63,1.8A4.442,4.442,0,0,1,279.316,591a4.71,4.71,0,0,1,2.3-.6,4.656,4.656,0,0,1,2.285.6l3.47,1.943a9.605,9.605,0,0,1,4.841,7.2H282.13a5.117,5.117,0,0,1-5.13-5.092S277,594.807,277,594.749Zm11,21.825h-5.032a1.213,1.213,0,1,0,0,2.426H288v20.574H273.212a0.489,0.489,0,0,1-.49-0.486v-26.2H288v3.691h0Zm0-6.118H268.934a0.488,0.488,0,0,1-.49-0.486v-6.913a0.489,0.489,0,0,1,.49-0.486H288v7.885Zm8.555,29.118h-6.11v-37h6.11v37Zm17.723-.486a0.489,0.489,0,0,1-.49.486H299V619h4.657a1.214,1.214,0,1,0,0-2.427H299v-3.69h15.278v26.2h0Zm4.278-29.118a0.488,0.488,0,0,1-.49.486H299v-7.885h19.066a0.489,0.489,0,0,1,.49.486v6.913h0ZM309.463,619h0.122a1.214,1.214,0,1,0,0-2.427h-0.122A1.214,1.214,0,1,0,309.463,619Zm-32.422,0h0.122a1.214,1.214,0,1,0,0-2.427h-0.122A1.214,1.214,0,1,0,277.041,619Z" transform="translate(-266 -587.969)"/>
</svg>
